# xmcd
#
# Track frame offsets:
#	150
#	18238
#	35686
#	56010
#	71669
#	87903
#	104689
#	120837
#	138414
#	156502
#	173918
#	194259
#	209938
#	226172
#	242920
#	259053
#	288030
#
# Disc length: 3849 seconds
#
# Revision: 1
# Processed by: cddbd v1.5.2PL0 Copyright (c) Steve Scherf et al.
# Submitted via: audiograbber 1.83.01
#
DISCID=f80f0711
DTITLE=Womack, Lee Ann - Sound Choice 2497
DYEAR=2006
DGENRE=Karaoke
TTITLE0=Twenty Years And Two Husbands Ago
TTITLE1=Something Worth Leaving
TTITLE2=Little Past Little Rock
TTITLE3=Never Again, Again
TTITLE4=Good News, Bad News (with George Strait)
TTITLE5=You've Got To Talk To Me
TTITLE6=I'll Think Of A Reason Later
TTITLE7=I May Hate Myself In The Morning
TTITLE8=Vocal Demo Track
TTITLE9=Vocal Demo Track
TTITLE10=Vocal Demo Track
TTITLE11=Vocal Demo Track
TTITLE12=Vocal Demo Track
TTITLE13=Vocal Demo Track
TTITLE14=Vocal Demo Track
TTITLE15=Vocal Demo Track
TTITLE16=Data Track
EXTD=
EXTT0=
EXTT1=
EXTT2=
EXTT3=
EXTT4=
EXTT5=
EXTT6=
EXTT7=
EXTT8=
EXTT9=
EXTT10=
EXTT11=
EXTT12=
EXTT13=
EXTT14=
EXTT15=
EXTT16=
PLAYORDER=
